<?xml version="1.0" encoding="UTF-8" standalone="no"?>
<!-- Created with Inkscape (http://www.inkscape.org/) -->

<svg
   xmlns:osb="http://www.openswatchbook.org/uri/2009/osb"
   xmlns:dc="http://purl.org/dc/elements/1.1/"
   xmlns:cc="http://creativecommons.org/ns#"
   xmlns:rdf="http://www.w3.org/1999/02/22-rdf-syntax-ns#"
   xmlns:svg="http://www.w3.org/2000/svg"
   xmlns="http://www.w3.org/2000/svg"
   xmlns:sodipodi="http://sodipodi.sourceforge.net/DTD/sodipodi-0.dtd"
   xmlns:inkscape="http://www.inkscape.org/namespaces/inkscape"
   width="297mm"
   height="210mm"
   viewBox="0 0 1052.3622 744.09448"
   id="svg2"
   version="1.1"
   inkscape:version="0.91 r13725"
   sodipodi:docname="drawing.svg">
  <defs
     id="defs4">
    <inkscape:path-effect
       effect="bend_path"
       id="path-effect4158"
       is_visible="true"
       bendpath="m 199.95652,376.54205 71.97093,0"
       prop_scale="1.21"
       scale_y_rel="false"
       vertical="false" />
    <inkscape:path-effect
       effect="envelope"
       id="path-effect4156"
       is_visible="true"
       yy="true"
       xx="true"
       bendpath1="m 199.95652,322.2848 71.97093,0"
       bendpath2="m 271.92745,322.2848 0,108.51449"
       bendpath3="m 199.95652,430.79929 71.97093,0"
       bendpath4="m 199.95652,322.2848 0,108.51449" />
    <linearGradient
       id="linearGradient4146"
       osb:paint="gradient">
      <stop
         style="stop-color:#000000;stop-opacity:1;"
         offset="0"
         id="stop4148" />
      <stop
         style="stop-color:#000000;stop-opacity:0;"
         offset="1"
         id="stop4150" />
    </linearGradient>
  </defs>
  <sodipodi:namedview
     id="base"
     pagecolor="#ffffff"
     bordercolor="#666666"
     borderopacity="1.0"
     inkscape:pageopacity="0.0"
     inkscape:pageshadow="2"
     inkscape:zoom="0.50218216"
     inkscape:cx="440.20581"
     inkscape:cy="576.90607"
     inkscape:document-units="px"
     inkscape:current-layer="layer3"
     showgrid="false"
     inkscape:window-width="1319"
     inkscape:window-height="744"
     inkscape:window-x="41"
     inkscape:window-y="24"
     inkscape:window-maximized="1" />
  <metadata
     id="metadata7">
    <rdf:RDF>
      <cc:Work
         rdf:about="">
        <dc:format>image/svg+xml</dc:format>
        <dc:type
           rdf:resource="http://purl.org/dc/dcmitype/StillImage" />
        <dc:title />
      </cc:Work>
    </rdf:RDF>
  </metadata>
  <g
     inkscape:label="label"
     inkscape:groupmode="layer"
     id="layer1"
     transform="translate(0,-308.26772)"
     style="display:inline">
    <g
       style="font-style:normal;font-variant:normal;font-weight:bold;font-stretch:normal;font-size:287.96606445px;line-height:125%;font-family:Sawasdee;-inkscape-font-specification:'Sawasdee, Bold';text-align:start;letter-spacing:0px;word-spacing:0px;writing-mode:lr-tb;text-anchor:start;fill:#007eff;fill-opacity:1;stroke:none;stroke-width:1px;stroke-linecap:butt;stroke-linejoin:miter;stroke-opacity:1"
       id="text4164">
      <path
         d="m 187.80751,586.75997 150.16981,0 -128.09428,188.27469 128.37549,0 -7.31164,21.65369 -162.26212,0 127.67245,-188.27468 -116.14256,0 7.59285,-21.6537 z"
         style=""
         id="path4161" />
      <path
         d="m 383.67505,796.68835 -22.35674,0 0,-209.92838 22.35674,0 0,209.92838 z"
         style=""
         id="path4163" />
      <path
         d="m 423.18602,796.68835 0,-212.03751 173.08897,160.99665 0,-158.88752 22.35674,0 0,212.31873 -173.08897,-160.99665 0,158.6063 -22.35674,0 z"
         style=""
         id="path4165" />
      <path
         d="m 994.39136,586.75997 0,21.6537 -53.43122,0 0,188.27468 -21.93492,0 0,-188.27468 -53.57181,0 0,-21.6537 z"
         id="path4169"
         inkscape:connector-curvature="0"
         sodipodi:nodetypes="ccccccccc" />
    </g>
  </g>
  <g
     inkscape:groupmode="layer"
     id="layer3"
     inkscape:label="bulb">
    <path
       style="fill:none;fill-opacity:1;stroke:#007eff;stroke-width:21;stroke-linecap:round;stroke-linejoin:miter;stroke-miterlimit:4;stroke-dasharray:none;stroke-dashoffset:0;stroke-opacity:1"
       d="m 715.33217,473.76074 c -11.78223,-4.98344 -22.39276,-12.19461 -31.30362,-21.10548 -17.82174,-17.82174 -28.84469,-42.44219 -28.84469,-69.63725 0,-54.3901 44.09187,-98.48194 98.48195,-98.48194 54.39006,0 98.48193,44.09184 98.48193,98.48194 0,27.19503 -11.02295,51.81551 -28.84469,69.63725 -8.91085,8.91084 -19.52141,16.12204 -31.30363,21.10548 -9.80075,5.63127 -13.01994,7.66091 -15.66003,12.54018 -2.64009,4.87922 -1.27235,13.16273 -1.27235,13.16273 0,0 1.39718,1.92607 -3.28236,7.08724 -4.67957,5.16117 -9.1513,4.59205 -9.1513,4.59205 0,0 -37.45704,-1.42804 -40.00188,1.16897 -5.08971,5.19405 -7.38276,19.41304 -0.2569,24.96559 7.12574,5.55258 51.5242,1.6698 51.5242,1.6698 m -11.63408,25.63583 -32.03208,0"
       id="path4149"
       inkscape:connector-curvature="0"
       sodipodi:nodetypes="csssssczczcszccc" />
  </g>
</svg>
